<?xml version="1.0" standalone="no"?>
<!DOCTYPE svg PUBLIC "-//W3C//DTD SVG 20010904//EN"
 "http://www.w3.org/TR/2001/REC-SVG-20010904/DTD/svg10.dtd">
<svg version="1.0" xmlns="http://www.w3.org/2000/svg"
 width="1137.000000pt" height="643.000000pt" viewBox="0 0 1137.000000 643.000000"
 preserveAspectRatio="xMidYMid meet">

<g transform="translate(0.000000,643.000000) scale(0.100000,-0.100000)"
fill="#000000" stroke="none">
<path d="M2617 6400 c-5 -20 -25 -31 -94 -49 -53 -14 -98 -52 -125 -105 -18
-34 -23 -64 -27 -173 -5 -116 -9 -135 -28 -162 -13 -17 -23 -33 -23 -36 0 -3
183 -5 406 -5 l405 0 47 28 47 27 2913 2 2913 2 33 -30 34 -29 437 0 c413 0
437 1 430 18 -11 23 -24 142 -24 219 -1 75 -31 159 -69 195 -15 14 -47 36 -71
48 -42 21 -56 22 -235 20 -253 -2 -286 2 -286 36 0 12 -438 14 -3339 14 -3317
0 -3339 0 -3344 -20z"/>
<path d="M3039 5463 c-58 -36 -59 -42 -59 -393 0 -353 1 -359 60 -394 26 -14
119 -16 1017 -16 770 0 993 3 1013 13 13 7 35 28 47 46 23 33 23 39 23 303 0
251 -1 272 -19 294 -11 14 -22 43 -26 65 -5 30 -13 43 -32 50 -13 5 -133 9
-266 9 -212 0 -251 2 -312 20 -67 19 -99 20 -745 20 -606 -1 -678 -2 -701 -17z
m1291 -108 l0 -85 -32 -1 c-50 -2 -62 1 -75 19 -28 35 -4 85 40 85 23 0 27 4
27 27 0 30 7 40 27 40 10 0 13 -21 13 -85z m-143 -5 l31 -80 -23 0 c-13 0 -25
7 -29 15 -3 9 -18 15 -36 15 -20 0 -30 -5 -30 -15 0 -9 -9 -15 -25 -15 l-25 0
21 53 c12 28 26 64 31 80 7 18 17 27 31 27 18 0 28 -15 54 -80z m-697 -16 c0
-19 -4 -34 -10 -34 -5 0 -10 18 -10 41 0 24 4 38 10 34 6 -3 10 -22 10 -41z
m903 10 l14 -27 7 27 c5 19 13 26 31 26 l25 0 -25 -50 c-14 -27 -32 -50 -39
-50 -12 0 -66 77 -66 94 0 18 41 2 53 -20z m197 -23 l0 -49 -41 -4 c-50 -5
-79 14 -79 51 0 39 17 51 72 51 l48 0 0 -49z m118 37 c7 -7 12 -29 12 -50 0
-31 -4 -38 -20 -38 -16 0 -20 7 -20 35 0 24 -5 35 -15 35 -10 0 -15 -11 -15
-35 0 -28 -4 -35 -20 -35 -17 0 -20 7 -20 50 l0 50 43 0 c24 0 48 -5 55 -12z
m110 0 c-3 -7 -14 -14 -26 -16 -14 -2 -22 -11 -22 -22 0 -11 8 -20 22 -22 28
-4 34 -24 9 -31 -49 -12 -92 51 -60 89 15 18 82 19 77 2z m100 0 c16 -16 15
-48 0 -48 -9 0 -8 -3 2 -10 17 -11 7 -24 -26 -34 -25 -7 -74 27 -74 51 0 42
69 70 98 41z m-1571 -82 c-2 -6 -13 4 -25 23 -12 19 -18 39 -15 44 7 11 45
-51 40 -67z m308 35 c-17 -34 -35 -48 -35 -29 0 18 28 58 41 58 5 0 3 -13 -6
-29z m-118 -60 c23 -11 49 -31 58 -45 11 -17 26 -26 42 -26 38 0 89 -36 107
-74 35 -74 7 -153 -69 -191 -22 -11 -40 -24 -40 -30 -2 -25 -30 -65 -42 -61
-8 3 -11 1 -8 -4 10 -17 -53 -46 -105 -49 -29 -1 -50 2 -50 8 0 6 -6 8 -14 5
-17 -7 -68 25 -60 37 3 5 -2 9 -10 9 -8 0 -20 16 -27 35 -10 26 -24 41 -55 56
-79 38 -105 137 -53 203 24 31 69 56 99 56 11 0 34 16 51 35 48 54 108 66 176
36z m-297 -43 c0 -11 -7 -10 -40 7 -42 22 -37 38 5 18 19 -9 35 -20 35 -25z
m521 11 c-36 -22 -41 -23 -41 -9 0 12 52 40 63 33 5 -3 -5 -14 -22 -24z m709
-45 c0 -10 -72 -179 -80 -188 -5 -4 -13 -5 -18 -2 -7 4 1 33 19 79 17 39 35
82 40 95 7 19 39 32 39 16z m-360 -34 c0 -23 4 -30 20 -30 16 0 20 7 20 30 0
25 4 30 25 30 23 0 24 -3 27 -72 l3 -73 29 73 c37 96 56 95 97 -1 16 -38 29
-73 29 -78 0 -15 -37 -10 -44 6 -3 9 -18 15 -35 15 -16 0 -31 -6 -35 -15 -4
-10 -20 -15 -51 -15 -43 0 -45 1 -45 30 0 23 -4 30 -20 30 -16 0 -20 -7 -20
-30 0 -23 -4 -30 -20 -30 -18 0 -20 7 -20 80 0 73 2 80 20 80 16 0 20 -7 20
-30z m471 17 c25 -19 41 -56 33 -80 -13 -44 -45 -67 -91 -67 l-43 0 0 80 0 80
43 0 c23 0 49 -6 58 -13z m147 1 c17 -17 15 -67 -3 -74 -12 -5 -10 -12 12 -38
l26 -31 -23 -3 c-16 -3 -30 5 -46 25 l-23 28 -1 -27 c0 -21 -5 -28 -20 -28
-18 0 -20 7 -20 80 l0 80 43 0 c24 0 48 -5 55 -12z m-1563 -63 c0 -12 -40 -19
-61 -11 -9 3 -12 11 -9 16 8 14 70 9 70 -5z m685 -5 c0 -5 -15 -10 -34 -10
-19 0 -38 5 -41 10 -4 6 10 10 34 10 23 0 41 -4 41 -10z m304 -190 c34 -13 25
-44 -10 -36 -17 5 -24 2 -24 -9 0 -8 6 -15 13 -15 22 0 49 -36 45 -61 -4 -32
-42 -49 -80 -38 -40 11 -43 15 -28 34 9 11 17 12 32 4 15 -8 23 -8 32 1 8 9 8
14 -2 17 -7 3 -25 15 -39 27 -36 31 -23 65 34 85 1 1 13 -3 27 -9z m206 -75
c0 -78 -2 -85 -20 -85 -18 0 -20 7 -20 78 0 80 3 92 27 92 10 0 13 -21 13 -85z
m268 58 c5 -18 -28 -29 -38 -12 -5 7 -6 17 -3 22 7 12 35 5 41 -10z m-78 -23
c0 -11 7 -20 15 -20 8 0 15 -5 15 -10 0 -6 -7 -13 -15 -16 -20 -8 -19 -23 2
-46 14 -16 15 -21 3 -28 -22 -14 -45 5 -58 48 -9 28 -9 48 -2 66 11 31 40 35
40 6z m-252 -32 c17 -17 15 -63 -4 -78 -54 -46 -138 25 -88 74 18 19 75 21 92
4z m122 -23 c0 -24 5 -35 15 -35 10 0 15 11 15 35 0 28 4 35 20 35 17 0 20 -7
20 -45 0 -40 -3 -47 -26 -55 -18 -7 -34 -7 -52 2 -22 11 -28 21 -30 56 -3 37
-1 42 17 42 17 0 21 -6 21 -35z m210 -15 c0 -43 -3 -50 -20 -50 -17 0 -20 7
-20 50 0 43 3 50 20 50 17 0 20 -7 20 -50z m118 38 c17 -17 15 -63 -4 -78 -54
-46 -138 25 -88 74 18 19 75 21 92 4z m132 -7 c5 -11 10 -33 10 -50 0 -24 -4
-31 -19 -31 -15 0 -21 8 -23 33 -2 20 -8 32 -18 32 -10 0 -16 -12 -18 -32 -2
-25 -8 -33 -23 -33 -16 0 -19 7 -19 50 l0 50 50 0 c38 0 52 -4 60 -19z"/>
<path d="M4255 5330 c-8 -14 3 -30 21 -30 8 0 14 9 14 20 0 21 -24 28 -35 10z"/>
<path d="M4126 5355 c-3 -8 -1 -15 4 -15 6 0 10 7 10 15 0 8 -2 15 -4 15 -2 0
-6 -7 -10 -15z"/>
<path d="M4510 5320 c0 -15 5 -20 18 -18 9 2 17 10 17 18 0 8 -8 16 -17 18
-13 2 -18 -3 -18 -18z"/>
<path d="M4878 5303 c7 -3 16 -2 19 1 4 3 -2 6 -13 5 -11 0 -14 -3 -6 -6z"/>
<path d="M3414 5230 c-23 -12 -46 -32 -52 -45 -9 -19 -19 -25 -42 -25 -81 0
-136 -77 -110 -155 19 -59 90 -100 90 -52 1 32 38 109 50 102 5 -3 10 0 10 8
0 19 70 47 115 47 27 0 35 -4 35 -17 0 -15 2 -16 10 -3 8 13 13 13 37 -1 16
-8 27 -23 27 -31 -1 -10 4 -14 12 -11 15 5 53 -66 54 -99 0 -21 18 -23 40 -5
32 25 50 62 50 105 0 58 -49 112 -102 112 -27 0 -39 7 -57 31 -23 31 -75 59
-108 59 -10 0 -36 -9 -59 -20z"/>
<path d="M3450 5063 l-1 -28 -18 23 c-12 13 -25 20 -35 16 -19 -7 -19 -9 -4
-34 16 -25 5 -35 -22 -20 -18 10 -24 9 -31 -1 -13 -21 -11 -27 11 -34 28 -9
25 -25 -5 -25 -18 0 -25 -5 -25 -20 0 -13 7 -20 20 -20 23 0 27 -18 5 -26 -17
-7 -18 -13 -6 -33 7 -10 13 -11 31 -1 28 15 35 8 20 -20 -17 -32 8 -48 32 -20
22 26 28 25 28 -5 0 -18 5 -25 20 -25 13 0 20 7 20 20 0 24 8 25 32 3 24 -22
45 -5 29 25 -13 25 -4 34 21 21 10 -5 23 -7 28 -4 15 9 12 32 -5 39 -24 9 -17
26 10 26 18 0 25 5 25 20 0 15 -7 20 -27 20 l-28 1 21 18 c16 13 19 22 12 34
-7 14 -13 15 -29 6 -26 -14 -37 -4 -22 21 10 14 9 21 -3 31 -12 10 -18 8 -30
-9 -20 -29 -34 -28 -34 3 0 18 -5 25 -20 25 -15 0 -20 -7 -20 -27z m97 -84
c19 -36 16 -65 -9 -93 -35 -40 -78 -43 -116 -11 -76 64 -10 176 83 140 17 -6
36 -22 42 -36z"/>
<path d="M3426 4984 c-35 -34 -5 -114 43 -114 28 0 71 39 71 64 0 12 -7 32
-16 44 -18 26 -74 30 -98 6z"/>
<path d="M4270 5090 c0 -5 5 -10 10 -10 6 0 10 5 10 10 0 6 -4 10 -10 10 -5 0
-10 -4 -10 -10z"/>
<path d="M4530 5090 c0 -34 3 -41 18 -38 12 2 17 13 17 38 0 25 -5 36 -17 38
-15 3 -18 -4 -18 -38z"/>
<path d="M4670 5120 c0 -13 5 -20 13 -17 6 2 12 10 12 17 0 7 -6 15 -12 18 -8
2 -13 -5 -13 -18z"/>
<path d="M4235 4800 c-8 -14 3 -30 21 -30 8 0 14 9 14 20 0 21 -24 28 -35 10z"/>
<path d="M4685 4800 c-8 -14 3 -30 21 -30 8 0 14 9 14 20 0 21 -24 28 -35 10z"/>
<path d="M8403 5437 c-18 -12 -33 -28 -33 -35 0 -7 -7 -15 -15 -18 -18 -7 -19
-20 -3 -38 10 -10 17 -10 40 2 25 12 32 12 53 -2 45 -30 25 -88 -30 -88 -31 0
-55 19 -55 43 0 11 -4 19 -10 19 -5 0 -10 -13 -10 -30 0 -20 -5 -30 -15 -30
-10 0 -15 10 -15 28 0 36 -5 40 -35 34 -20 -3 -25 -10 -25 -33 0 -22 -5 -29
-20 -29 -17 0 -20 7 -20 45 0 44 1 45 33 46 17 1 39 1 48 0 11 -1 18 8 21 29
l5 30 -129 0 -128 0 20 -20 c11 -11 20 -24 20 -30 0 -15 -38 -50 -55 -50 -9 0
-15 -9 -15 -25 0 -18 -5 -25 -20 -25 -18 0 -20 7 -20 75 l0 75 -321 0 c-202 0
-327 -4 -340 -10 -17 -9 -19 -22 -19 -102 l0 -91 24 22 c13 12 40 24 60 28 22
3 36 11 36 20 0 8 15 30 34 49 30 30 40 34 86 34 46 0 56 -4 86 -34 19 -19 34
-41 34 -50 0 -11 9 -16 30 -16 41 0 97 -51 106 -96 12 -67 -36 -132 -105 -141
l-41 -6 0 -58 0 -59 44 0 c27 0 48 6 56 16 8 8 25 14 39 12 20 -2 27 -9 29
-29 2 -14 -4 -31 -12 -38 -16 -13 -56 -6 -56 10 0 5 -20 9 -44 9 -72 0 -76 4
-76 76 l0 64 -40 0 -40 0 0 -69 c0 -52 4 -70 15 -75 22 -8 19 -53 -4 -66 -41
-21 -78 25 -47 59 11 12 16 37 16 84 l0 67 -35 0 -35 0 0 -58 c0 -32 -5 -63
-12 -70 -7 -7 -33 -12 -59 -12 -29 0 -51 -6 -59 -15 -30 -36 -81 5 -58 48 11
21 56 23 64 2 4 -11 21 -15 55 -15 l49 0 0 60 0 60 -32 0 c-44 0 -96 33 -112
70 -12 29 -13 30 -29 12 -25 -28 -25 -301 0 -339 35 -53 31 -53 724 -53 l641
0 -68 -36 c-57 -30 -71 -34 -87 -24 -26 16 -37 -1 -37 -57 0 -23 -4 -44 -9
-47 -20 -13 -18 -47 4 -74 13 -15 25 -41 27 -57 3 -26 7 -30 36 -30 38 -1 58
-23 88 -104 l21 -56 79 -3 c94 -3 154 14 171 49 41 85 68 178 68 235 0 73 -15
105 -64 132 -20 11 -47 32 -60 46 l-24 26 167 0 c276 0 266 -14 266 375 0 252
-2 290 -17 316 -34 57 -48 59 -425 58 -336 0 -344 -1 -375 -22z m-225 -93 c33
-23 28 -44 -10 -46 l-33 -1 33 -4 c42 -5 37 -27 -7 -31 -39 -4 -61 12 -61 44
0 19 32 54 50 54 3 0 16 -7 28 -16z m478 3 c6 -3 16 -2 24 3 26 16 50 -8 50
-50 0 -33 -3 -40 -20 -40 -16 0 -20 7 -20 30 0 17 -4 30 -10 30 -5 0 -10 -13
-10 -30 0 -23 -4 -30 -20 -30 -16 0 -20 7 -20 30 0 17 -4 30 -10 30 -5 0 -10
-13 -10 -30 0 -23 -4 -30 -20 -30 -17 0 -20 7 -21 43 0 23 -3 36 -6 30 -2 -7
-13 -13 -24 -13 -14 0 -19 -7 -19 -30 0 -23 -4 -30 -20 -30 -17 0 -20 7 -20
44 0 43 1 45 33 48 49 5 132 2 143 -5z m194 -43 l0 -44 -43 0 c-48 0 -67 13
-67 46 0 32 32 51 74 46 35 -4 36 -5 36 -48z m112 32 c4 -6 8 -26 8 -43 0 -26
-4 -33 -19 -33 -15 0 -21 8 -23 33 -2 17 -7 32 -13 32 -5 0 -11 -15 -13 -32
-5 -53 -32 -43 -32 11 0 41 2 45 28 48 32 4 54 -1 64 -16z m87 15 c16 -10 6
-31 -15 -31 -21 0 -17 -27 6 -33 30 -8 24 -27 -8 -27 -53 0 -72 55 -30 84 26
18 28 19 47 7z m109 -30 c3 -18 -2 -21 -30 -23 l-33 -1 33 -4 c37 -5 42 -20
10 -32 -45 -17 -86 17 -73 60 14 42 87 43 93 0z m-312 -153 c4 -6 0 -16 -9
-23 -19 -13 -23 -35 -7 -35 6 0 10 -7 10 -15 0 -8 -4 -15 -10 -15 -5 0 -10
-13 -10 -30 0 -20 -5 -30 -15 -30 -10 0 -15 10 -15 28 0 15 -6 34 -12 41 -10
11 -10 14 0 18 6 3 12 15 12 27 0 37 39 62 56 34z m-758 -16 c2 -7 -5 -16 -17
-19 -18 -5 -21 -13 -21 -59 0 -47 -2 -54 -20 -54 -18 0 -20 7 -20 55 0 42 -3
55 -15 55 -8 0 -15 9 -15 21 0 18 5 20 52 17 31 -2 53 -8 56 -16z m272 -2 c0
-11 -6 -20 -14 -20 -18 0 -29 16 -21 30 11 18 35 11 35 -10z m-52 -89 c3 -36
1 -41 -17 -41 -17 0 -21 6 -21 36 0 31 -2 35 -15 24 -8 -7 -15 -23 -15 -36 0
-15 -6 -24 -15 -24 -11 0 -15 12 -15 44 0 41 2 45 28 48 50 7 67 -5 70 -51z
m170 0 c3 -36 1 -41 -17 -41 -17 0 -21 6 -21 36 0 31 -2 35 -15 24 -8 -7 -15
-23 -15 -36 0 -15 -6 -24 -15 -24 -11 0 -15 12 -15 44 0 41 2 45 28 48 50 7
67 -5 70 -51z m122 -6 c0 -35 -5 -59 -16 -69 -19 -20 -68 -21 -83 -2 -16 19 1
29 34 20 16 -4 25 -2 25 6 0 7 -6 10 -14 7 -21 -8 -56 21 -56 48 0 32 31 52
74 47 l36 -4 0 -53z m148 49 c42 -29 21 -86 -33 -86 -57 0 -75 64 -25 89 32
16 31 16 58 -3z m-618 -24 c0 -20 5 -30 15 -30 10 0 15 10 15 30 0 20 5 30 16
30 25 0 15 -81 -12 -91 -36 -13 -69 11 -72 54 -3 32 0 37 17 37 17 0 21 -6 21
-30z m230 -15 c0 -33 -4 -45 -15 -45 -11 0 -15 12 -15 45 0 33 4 45 15 45 11
0 15 -12 15 -45z m-268 -165 c10 -12 18 -31 18 -41 0 -18 1 -18 21 2 11 11 27
18 36 15 8 -3 23 -6 34 -6 16 0 19 -7 19 -45 l0 -45 -45 0 c-39 0 -47 4 -57
25 l-11 24 -19 -24 c-15 -19 -29 -25 -59 -25 l-39 0 0 76 0 77 42 -6 c27 -4
49 -14 60 -27z m368 -1 c0 -26 3 -29 20 -24 13 4 28 -2 45 -19 16 -17 25 -20
25 -11 0 21 30 33 73 28 36 -5 37 -6 37 -49 l0 -44 -51 0 c-43 0 -52 3 -56 20
l-6 21 -14 -21 c-11 -15 -25 -20 -59 -20 l-44 0 0 75 c0 60 3 75 15 75 10 0
15 -10 15 -31z m-180 -8 c0 -11 5 -21 11 -23 8 -3 8 -11 -2 -27 -11 -19 -11
-25 -1 -28 22 -8 13 -33 -13 -33 -19 0 -26 7 -31 28 -3 15 -7 33 -10 40 -6 20
14 62 31 62 8 0 15 -9 15 -19z m111 -21 c16 0 19 -7 19 -45 l0 -45 -45 0 c-43
0 -65 16 -65 49 0 19 41 53 57 47 8 -3 23 -6 34 -6z m349 -11 c0 -5 -8 -9 -17
-9 -15 0 -14 -2 3 -14 17 -13 20 -12 31 8 7 13 21 26 31 28 29 8 62 -9 62 -32
0 -16 -7 -20 -32 -22 l-33 -1 33 -4 c37 -5 42 -20 10 -32 -28 -10 -58 -3 -65
17 -6 13 -8 13 -18 -1 -18 -25 -75 -27 -75 -1 0 11 6 14 23 9 l22 -6 -22 17
c-13 9 -23 23 -23 31 0 7 10 17 23 22 24 9 47 4 47 -10z m194 0 c-3 -5 -13 -9
-22 -9 -13 0 -12 -3 6 -16 12 -8 22 -22 22 -30 0 -17 -37 -33 -63 -26 -23 6
-16 28 9 25 16 -1 16 1 -4 16 -38 28 -9 65 40 53 10 -2 15 -8 12 -13z"/>
<path d="M8780 5305 c0 -8 7 -15 15 -15 8 0 15 7 15 15 0 8 -7 15 -15 15 -8 0
-15 -7 -15 -15z"/>
<path d="M9108 5323 c7 -3 16 -2 19 1 4 3 -2 6 -13 5 -11 0 -14 -3 -6 -6z"/>
<path d="M8530 5065 c0 -8 7 -15 15 -15 8 0 15 7 15 15 0 8 -7 15 -15 15 -8 0
-15 -7 -15 -15z"/>
<path d="M8700 5065 c0 -8 7 -15 15 -15 8 0 15 7 15 15 0 8 -7 15 -15 15 -8 0
-15 -7 -15 -15z"/>
<path d="M8030 4850 c0 -30 3 -38 15 -34 20 8 29 42 15 59 -21 25 -30 17 -30
-25z"/>
<path d="M8150 4825 c0 -10 7 -15 18 -13 21 4 19 22 -2 26 -10 2 -16 -3 -16
-13z"/>
<path d="M8467 4834 c-9 -10 2 -24 19 -24 8 0 14 7 14 15 0 15 -21 21 -33 9z"/>
<path d="M8587 4834 c-9 -10 2 -24 19 -24 8 0 14 7 14 15 0 15 -21 21 -33 9z"/>
<path d="M8340 4825 c0 -10 7 -15 18 -13 21 4 19 22 -2 26 -10 2 -16 -3 -16
-13z"/>
<path d="M8798 4843 c7 -3 16 -2 19 1 4 3 -2 6 -13 5 -11 0 -14 -3 -6 -6z"/>
<path d="M8030 5360 c0 -13 5 -18 15 -14 12 5 13 10 4 20 -15 19 -19 18 -19
-6z"/>
<path d="M7510 5337 c-26 -9 -40 -23 -55 -54 -17 -36 -25 -42 -51 -43 -82 -1
-117 -114 -54 -172 l30 -28 176 0 c172 0 175 0 199 24 64 64 27 176 -59 176
-30 0 -36 4 -46 34 -18 57 -78 83 -140 63z"/>
<path d="M8400 5305 c0 -8 7 -15 15 -15 8 0 15 7 15 15 0 8 -7 15 -15 15 -8 0
-15 -7 -15 -15z"/>
<path d="M7301 4910 c-17 -10 -7 -40 14 -40 8 0 15 9 15 19 0 24 -12 32 -29
21z"/>
<path d="M7781 4911 c-17 -11 -7 -41 13 -41 22 0 30 20 15 36 -9 8 -19 10 -28
5z"/>
<path d="M11069 4841 c-25 -21 -64 -67 -89 -102 l-44 -64 72 64 c40 34 72 69
72 76 0 7 9 24 21 39 28 36 19 33 -32 -13z"/>
<path d="M7534 4855 c-7 -18 3 -35 21 -35 18 0 26 25 12 39 -15 15 -27 14 -33
-4z"/>
<path d="M10912 4800 c-50 -83 -78 -163 -87 -247 l-8 -62 29 12 c122 52 169
83 192 125 l24 43 -92 -68 c-50 -37 -98 -72 -105 -78 -28 -19 -26 4 5 65 17
34 26 59 21 55 -17 -10 -13 5 29 114 22 57 39 105 37 107 -2 2 -22 -28 -45
-66z"/>
<path d="M1007 4835 l-28 -25 -412 0 c-312 0 -418 -3 -437 -13 l-25 -13 -3
-286 c-2 -250 0 -288 14 -302 13 -14 62 -16 395 -16 l379 0 0 54 0 54 39 0
c46 1 64 -16 59 -55 -2 -23 -8 -29 -35 -31 -27 -3 -33 -7 -33 -28 0 -13 9 -29
20 -36 11 -7 20 -18 20 -25 0 -13 103 -69 193 -104 74 -29 107 -63 107 -111 0
-27 -5 -40 -20 -48 -27 -14 -25 -36 10 -126 17 -42 38 -106 46 -142 8 -35 26
-92 40 -127 l25 -62 92 -11 c51 -5 111 -8 134 -6 23 3 44 0 47 -5 4 -6 20 -2
41 10 l35 21 0 -29 c0 -15 -14 -93 -31 -173 -17 -80 -34 -165 -38 -190 -5 -25
-31 -92 -59 -150 -28 -58 -55 -124 -61 -148 -5 -24 -16 -51 -25 -61 -9 -10
-16 -22 -16 -27 0 -5 43 -38 95 -73 l95 -64 23 21 c13 12 26 22 29 22 4 0 9
-39 12 -87 10 -142 26 -249 42 -288 8 -20 16 -68 16 -107 2 -69 2 -69 35 -83
18 -8 35 -20 37 -27 2 -7 22 -71 45 -143 44 -141 54 -199 71 -407 8 -98 8
-170 1 -250 -6 -62 -13 -153 -17 -203 -6 -86 -27 -165 -44 -165 -14 0 -29 -53
-40 -140 -6 -47 -18 -104 -26 -126 -8 -24 -12 -53 -8 -68 15 -62 98 -85 163
-45 l33 20 -2 147 c-2 173 11 297 33 320 15 14 17 13 27 -13 17 -45 31 -116
24 -126 -3 -5 0 -25 6 -44 9 -28 8 -63 -5 -165 -20 -154 -14 -177 51 -199 37
-13 44 -12 80 5 l39 19 2 150 c3 167 -4 200 -50 246 l-31 32 -9 156 c-10 183
-5 363 16 551 22 200 35 257 76 345 21 44 44 95 51 113 12 30 16 32 60 32 l47
0 7 61 c3 34 6 101 6 148 0 108 9 161 26 161 27 0 36 39 29 125 l-7 83 38 -7
c22 -4 53 -15 71 -24 18 -9 38 -17 46 -17 8 0 31 31 50 68 20 38 57 95 81 126
25 32 48 72 52 90 4 17 18 56 33 86 22 47 26 67 25 138 -2 77 -4 84 -33 117
-17 20 -31 40 -31 45 0 4 -22 35 -50 67 -27 32 -57 74 -66 93 -9 19 -31 58
-49 85 -40 61 -50 116 -32 168 19 53 11 87 -25 101 -28 10 -28 12 -22 67 6 56
6 58 -24 73 -44 23 -58 78 -43 171 10 58 9 79 -4 121 -17 57 -33 75 -87 97
-27 11 -41 26 -56 59 -28 64 -42 72 -110 63 -31 -4 -97 -8 -147 -9 -49 -1 -96
-5 -102 -9 -7 -5 -13 -21 -13 -38 0 -16 -5 -38 -12 -49 -10 -15 -9 -24 2 -45
12 -23 11 -30 -11 -68 -32 -56 -32 -144 -2 -203 21 -40 84 -104 103 -104 6 0
6 -9 1 -22 -5 -13 -14 -22 -21 -20 -6 1 -33 -4 -60 -12 -37 -11 -64 -12 -112
-6 -132 20 -138 18 -217 -59 -39 -37 -71 -75 -71 -84 0 -8 -14 -26 -30 -39
-17 -13 -43 -33 -59 -45 -40 -32 -74 -29 -105 8 -14 17 -26 36 -26 43 0 7 -15
47 -34 87 -19 41 -37 88 -41 104 -4 17 -23 69 -42 117 -20 48 -33 94 -30 103
5 11 0 15 -17 15 -31 0 -111 45 -135 77 -11 13 -33 28 -48 33 l-28 8 33 1 c19
1 45 10 59 21 32 25 54 25 86 0 25 -20 37 -21 357 -18 l332 3 29 33 29 32 0
293 c0 254 -2 296 -16 316 -35 49 -53 51 -491 51 l-408 -1 -28 -24z m223 -59
c0 -29 3 -33 23 -29 30 6 49 -18 45 -54 -3 -26 -7 -28 -50 -31 l-48 -3 0 75
c0 61 3 76 15 76 10 0 15 -10 15 -34z m-363 2 c13 -12 23 -33 23 -47 l0 -25
16 22 c11 16 25 22 55 22 l39 0 0 -45 0 -45 -45 0 c-35 0 -47 4 -56 21 l-11
21 -19 -21 c-13 -14 -32 -21 -54 -21 l-35 0 0 70 0 70 32 0 c19 0 41 -9 55
-22z m193 -18 c6 -12 8 -29 5 -40 -3 -11 -1 -29 5 -40 11 -20 9 -21 -16 -18
-23 2 -30 9 -36 38 -13 66 16 108 42 60z m120 -57 l0 -44 -47 3 c-44 3 -48 5
-51 31 -5 39 13 56 59 55 l39 0 0 -45z m230 0 l0 -44 -47 3 c-44 3 -48 5 -51
31 -5 39 13 56 59 55 l39 0 0 -45z m90 39 c0 -4 -5 -13 -11 -19 -7 -7 -7 -13
-1 -17 5 -3 17 5 26 19 18 27 54 33 74 13 22 -22 13 -38 -20 -38 -17 0 -28 -3
-24 -7 4 -4 16 -8 26 -8 35 0 26 -20 -10 -23 -23 -2 -38 2 -46 13 -11 14 -12
14 -18 0 -4 -11 -16 -15 -38 -13 -18 2 -31 8 -28 13 3 6 12 9 20 8 12 -1 11 1
-2 11 -18 13 -23 37 -11 49 9 10 63 9 63 -1z m-1047 -70 c15 -14 30 -36 33
-48 4 -15 15 -24 37 -27 46 -7 103 -30 127 -52 18 -17 20 -30 20 -157 l0 -138
-140 0 -140 0 0 49 0 49 -104 4 c-104 3 -105 3 -140 37 -32 31 -36 40 -36 87
0 68 33 111 91 120 21 4 39 12 39 19 0 21 42 67 74 81 43 20 105 9 139 -24z
m687 -106 c0 -8 -6 -16 -12 -19 -10 -3 -10 -9 -1 -25 8 -13 9 -23 3 -27 -6 -3
-10 -19 -10 -36 0 -22 -5 -29 -20 -29 -15 0 -20 7 -20 28 0 35 -6 41 -31 35
-13 -4 -19 -14 -19 -34 0 -22 -5 -29 -20 -29 -17 0 -20 7 -20 45 l0 45 45 0
c37 0 45 3 45 18 0 10 5 23 12 30 17 17 48 15 48 -2z m-268 -65 c12 -20 12
-20 26 0 15 21 52 25 70 7 22 -22 13 -38 -20 -38 -17 0 -28 -3 -24 -7 4 -4 16
-8 26 -8 35 0 26 -20 -10 -23 -23 -2 -38 2 -46 12 -10 14 -13 15 -24 1 -7 -8
-23 -15 -36 -15 -19 0 -24 -5 -24 -25 0 -16 -6 -25 -15 -25 -12 0 -15 14 -15
70 l0 70 40 0 c29 0 43 -5 52 -19z m356 7 c7 -7 12 -21 12 -33 0 -30 -19 -45
-57 -45 -43 0 -61 31 -38 66 17 26 62 33 83 12z m102 0 c0 -5 -9 -12 -20 -15
-14 -4 -20 -14 -20 -34 0 -22 -5 -29 -20 -29 -17 0 -20 7 -20 44 l0 44 40 0
c22 0 40 -4 40 -10z m153 -9 c10 -17 12 -17 25 2 9 13 25 19 53 19 l39 0 0
-45 0 -45 -45 0 c-31 0 -47 5 -54 18 -10 16 -10 16 -11 0 0 -11 -8 -18 -20
-18 -16 0 -20 7 -20 30 0 17 -4 30 -10 30 -5 0 -10 -13 -10 -30 0 -23 -4 -30
-20 -30 -16 0 -20 7 -20 30 0 17 -4 30 -10 30 -5 0 -10 -13 -10 -30 0 -20 -5
-30 -15 -30 -11 0 -15 12 -15 45 l0 44 66 -1 c51 -1 68 -5 77 -19z m226 3 c9
-15 11 -15 28 1 24 21 63 23 63 2 0 -9 -9 -15 -21 -15 -14 0 -19 -5 -17 -17 2
-10 10 -18 17 -18 8 0 16 -6 19 -12 6 -21 -55 -16 -67 5 -10 16 -10 16 -11 0
0 -11 -8 -18 -20 -18 -16 0 -20 7 -20 30 0 20 -5 30 -15 30 -10 0 -15 -10 -15
-30 0 -20 -5 -30 -15 -30 -11 0 -15 12 -15 44 l0 44 40 0 c27 1 43 -5 49 -16z
m179 6 c22 -22 13 -38 -20 -38 -17 0 -28 -3 -24 -7 4 -4 16 -8 26 -8 36 0 26
-20 -12 -23 -29 -2 -39 1 -48 18 -24 44 43 93 78 58z m-785 -175 c9 -9 -13
-34 -24 -27 -14 8 -11 34 4 34 8 0 17 -3 20 -7z m217 -7 c0 -8 -5 -18 -11 -22
-14 -8 -33 11 -25 25 10 16 36 13 36 -3z m330 0 c0 -8 -5 -18 -11 -22 -14 -8
-33 11 -25 25 10 16 36 13 36 -3z m-610 -21 c0 -8 5 -15 10 -15 6 0 10 -7 10
-15 0 -8 -4 -15 -10 -15 -5 0 -10 -7 -10 -15 0 -8 5 -15 10 -15 6 0 10 -7 10
-16 0 -10 -7 -14 -22 -12 -25 3 -41 55 -31 96 6 24 33 31 33 7z m553 -4 c3
-14 11 -17 31 -14 25 5 26 4 26 -41 l0 -46 -45 0 c-42 0 -44 1 -54 37 -6 20
-8 47 -5 60 7 28 40 31 47 4z m-728 -31 c15 -17 16 -24 7 -45 -9 -19 -19 -25
-45 -25 -39 0 -57 15 -57 47 0 42 64 58 95 23z m235 -25 c0 -33 -4 -45 -15
-45 -11 0 -15 12 -15 45 0 33 4 45 15 45 11 0 15 -12 15 -45z m168 -2 c2 -34
0 -43 -12 -43 -11 0 -16 10 -16 30 0 20 -5 30 -15 30 -10 0 -15 -10 -15 -30 0
-20 -5 -30 -15 -30 -10 0 -15 10 -15 30 0 17 -4 30 -10 30 -5 0 -10 -13 -10
-30 0 -23 -4 -30 -20 -30 -17 0 -20 7 -20 44 l0 44 73 -2 72 -1 3 -42z m52 2
c0 -33 -4 -45 -15 -45 -11 0 -15 12 -15 45 0 33 4 45 15 45 11 0 15 -12 15
-45z m100 37 c0 -4 -7 -18 -16 -30 -14 -20 -14 -22 0 -22 9 0 16 -7 16 -15 0
-11 -12 -15 -46 -15 -47 0 -49 4 -16 43 14 15 13 17 -1 17 -10 0 -17 7 -17 15
0 11 11 15 40 15 22 0 40 -3 40 -8z m110 -37 l0 -45 -45 0 c-56 0 -76 26 -50
66 12 19 24 24 55 24 l40 0 0 -45z m225 25 c15 -17 16 -24 7 -45 -9 -19 -19
-25 -45 -25 -39 0 -57 15 -57 47 0 42 64 58 95 23z m113 -27 c2 -34 0 -43 -12
-43 -11 0 -16 10 -16 30 0 20 -5 30 -15 30 -10 0 -15 -10 -15 -30 0 -20 -5
-30 -15 -30 -11 0 -15 12 -15 46 l0 45 43 -3 c42 -3 42 -3 45 -45z m486 -725
c3 -18 17 -120 31 -226 29 -218 31 -201 -48 -315 l-41 -59 -88 6 c-48 3 -128
9 -178 12 l-90 6 0 44 c0 136 63 534 85 534 2 0 27 -16 56 -35 30 -19 61 -35
71 -35 9 0 52 22 95 50 43 27 83 50 90 50 7 0 14 -15 17 -32z m242 -333 c24
-16 111 -187 116 -227 2 -18 -5 -34 -24 -51 -14 -13 -34 -50 -44 -82 -15 -48
-28 -65 -72 -101 -49 -40 -72 -52 -72 -39 0 3 -7 40 -16 82 -14 69 -14 83 1
167 10 50 26 117 36 149 10 31 19 71 19 87 0 34 21 40 56 15z"/>
<path d="M1237 4714 c-13 -13 -7 -24 14 -24 11 0 19 5 17 12 -5 14 -22 21 -31
12z"/>
<path d="M810 4730 c0 -43 13 -50 34 -17 8 12 8 22 0 34 -21 33 -34 26 -34
-17z"/>
<path d="M930 4705 c0 -10 7 -15 18 -13 21 4 19 22 -2 26 -10 2 -16 -3 -16
-13z"/>
<path d="M1115 4710 c-3 -6 1 -13 10 -16 19 -8 30 0 20 15 -8 14 -22 14 -30 1z"/>
<path d="M1345 4710 c-3 -6 1 -13 10 -16 19 -8 30 0 20 15 -8 14 -22 14 -30 1z"/>
<path d="M301 4674 c-13 -9 -29 -31 -37 -49 -11 -26 -22 -35 -59 -44 -34 -9
-50 -19 -65 -44 -31 -50 -26 -93 14 -133 l34 -34 101 0 100 0 3 98 3 97 85 5
c79 5 82 6 43 13 -28 6 -43 14 -43 24 0 8 -15 30 -34 49 -28 28 -41 34 -78 34
-24 0 -54 -7 -67 -16z"/>
<path d="M414 4405 c0 -82 2 -115 3 -72 2 43 2 110 0 150 -1 40 -3 5 -3 -78z"/>
<path d="M440 4405 l0 -145 110 0 110 0 0 124 c0 115 -1 124 -20 129 -11 3
-20 12 -20 21 0 13 -14 16 -90 16 l-90 0 0 -145z m190 95 c0 -6 -35 -10 -85
-10 -50 0 -85 4 -85 10 0 6 35 10 85 10 50 0 85 -4 85 -10z m0 -30 c0 -6 -35
-10 -85 -10 -50 0 -85 4 -85 10 0 6 35 10 85 10 50 0 85 -4 85 -10z m0 -30 c0
-6 -35 -10 -85 -10 -50 0 -85 4 -85 10 0 6 35 10 85 10 50 0 85 -4 85 -10z m5
-30 c-3 -5 -44 -10 -91 -10 -49 0 -84 4 -84 10 0 6 37 10 91 10 57 0 88 -4 84
-10z m-109 -34 c3 -8 12 -12 20 -9 7 3 17 -2 20 -11 3 -9 15 -16 26 -16 15 0
19 -6 16 -27 -3 -27 -5 -28 -63 -28 l-60 0 -3 39 c-2 21 -1 44 2 52 7 18 35
18 42 0z"/>
<path d="M503 4335 c0 -22 2 -30 4 -17 2 12 2 30 0 40 -3 9 -5 -1 -4 -23z"/>
<path d="M542 4325 c0 -16 2 -22 5 -12 2 9 2 23 0 30 -3 6 -5 -1 -5 -18z"/>
<path d="M581 4314 c0 -11 3 -14 6 -6 3 7 2 16 -1 19 -3 4 -6 -2 -5 -13z"/>
<path d="M810 4475 c0 -8 7 -15 15 -15 8 0 15 7 15 15 0 8 -7 15 -15 15 -8 0
-15 -7 -15 -15z"/>
<path d="M1170 4475 c0 -10 7 -15 18 -13 21 4 19 22 -2 26 -10 2 -16 -3 -16
-13z"/>
<path d="M1530 4475 c0 -10 7 -15 18 -13 21 4 19 22 -2 26 -10 2 -16 -3 -16
-13z"/>
<path d="M1593 4254 c-3 -8 -1 -20 6 -27 8 -8 11 -4 11 16 0 30 -7 35 -17 11z"/>
<path d="M810 4245 c0 -8 7 -15 15 -15 8 0 15 7 15 15 0 8 -7 15 -15 15 -8 0
-15 -7 -15 -15z"/>
<path d="M1460 4245 c0 -10 7 -15 18 -13 21 4 19 22 -2 26 -10 2 -16 -3 -16
-13z"/>
<path d="M1700 4245 c0 -8 7 -15 15 -15 8 0 15 7 15 15 0 8 -7 15 -15 15 -8 0
-15 -7 -15 -15z"/>
<path d="M10731 4485 c-32 -108 -38 -210 -16 -290 9 -36 19 -65 22 -65 3 0 27
16 53 35 37 27 47 40 43 55 -3 12 1 28 9 38 22 25 138 224 138 236 0 6 -45
-59 -101 -144 -55 -85 -105 -159 -111 -165 -7 -7 -9 6 -5 43 4 35 2 52 -5 52
-8 0 -9 40 -4 140 3 77 5 140 3 140 -2 0 -14 -34 -26 -75z"/>
<path d="M7535 4377 c-54 -29 -60 -35 -59 -63 1 -21 23 -59 68 -120 36 -49 78
-113 93 -141 l28 -53 190 -95 c104 -52 224 -106 265 -119 l75 -25 -3 -123 c-4
-161 -29 -396 -47 -449 -8 -23 -15 -76 -15 -118 0 -42 -5 -94 -11 -116 -5 -22
-12 -95 -14 -162 -4 -122 -4 -123 18 -123 12 0 36 8 53 19 19 12 60 21 116 25
l86 8 6 -149 c9 -203 22 -317 57 -528 18 -109 32 -237 35 -325 5 -120 10 -154
29 -196 12 -27 25 -72 29 -98 4 -26 14 -66 22 -88 7 -22 16 -67 19 -101 3 -34
12 -90 20 -125 8 -35 15 -75 15 -90 1 -15 7 -45 15 -67 13 -36 12 -43 -5 -83
-27 -61 -25 -81 13 -113 l32 -28 -33 -12 c-29 -10 -33 -15 -27 -38 3 -14 19
-47 34 -72 16 -26 26 -51 22 -57 -4 -6 -23 -18 -43 -27 -43 -17 -62 -47 -54
-81 5 -19 21 -28 91 -50 71 -22 99 -26 160 -22 104 7 105 9 82 115 -10 48 -21
100 -24 116 -5 24 6 87 23 131 4 11 1 16 -11 16 -14 0 -16 7 -11 43 11 70 8
92 -19 153 -24 53 -26 67 -20 131 7 75 -7 315 -27 460 -8 61 -8 93 0 120 9 30
8 58 -3 128 -25 154 -15 365 17 365 12 0 59 -103 103 -225 18 -51 40 -107 49
-123 9 -17 16 -42 16 -55 0 -34 45 -162 69 -196 12 -16 21 -34 21 -40 0 -6 16
-62 36 -124 36 -109 37 -117 38 -272 1 -148 3 -163 24 -196 12 -20 38 -44 57
-53 31 -15 33 -18 24 -45 -6 -16 -19 -37 -30 -47 -10 -9 -19 -25 -19 -35 0
-26 30 -99 41 -99 22 0 6 -21 -26 -34 -37 -16 -56 -57 -38 -85 5 -9 41 -26 79
-39 56 -19 86 -23 161 -20 50 2 95 6 98 10 9 9 -22 179 -35 192 -6 6 -10 42
-10 81 0 77 6 89 63 118 42 22 188 141 285 232 107 101 93 87 187 194 43 50
83 91 87 91 4 0 17 -21 28 -47 36 -82 122 -152 188 -153 20 0 22 5 22 49 0 58
-15 105 -47 149 -24 32 -89 72 -118 72 -24 0 -18 16 36 96 l50 75 35 -31 c76
-66 172 -98 258 -86 l46 7 -14 28 c-24 45 -94 109 -141 126 -27 11 -63 16 -94
14 -28 -2 -51 0 -51 4 0 12 90 177 96 177 3 0 17 -12 32 -26 51 -48 101 -67
187 -71 107 -5 118 3 79 59 -16 23 -52 56 -79 73 -43 27 -57 30 -122 29 -40
-1 -73 2 -73 6 0 8 50 133 56 139 2 2 17 -2 34 -9 26 -11 33 -10 49 4 9 9 31
16 48 16 39 0 163 38 163 49 0 13 -58 31 -99 31 -20 -1 -54 -8 -76 -16 -71
-27 -77 -28 -87 -10 -5 9 -19 16 -32 16 -25 0 -51 25 -86 84 -23 38 -69 66
-111 66 -18 0 -20 -4 -14 -27 3 -16 17 -42 31 -60 13 -17 24 -41 24 -52 0 -22
51 -53 107 -65 l31 -7 -29 -72 c-38 -90 -44 -96 -63 -60 -22 44 -89 100 -133
112 -46 13 -123 14 -142 2 -11 -7 -10 -15 8 -44 26 -42 88 -100 131 -122 17
-9 53 -19 81 -22 27 -3 49 -11 49 -17 -1 -6 -20 -47 -43 -90 -40 -75 -67 -105
-67 -74 0 23 -69 97 -109 117 -20 10 -55 22 -78 26 l-43 7 0 -66 0 -65 45 -26
c25 -15 74 -32 110 -38 36 -6 65 -14 65 -18 0 -10 -97 -156 -109 -163 -5 -4
-18 8 -27 26 -18 36 -63 88 -76 88 -4 0 -8 -40 -8 -90 0 -88 1 -90 23 -90 13
0 26 -3 30 -6 24 -24 -331 -388 -457 -469 -30 -19 -61 -41 -69 -49 -28 -29
-41 -24 -38 15 1 21 -12 79 -33 142 -27 78 -38 133 -45 214 -9 111 -45 228
-122 401 -28 61 -30 72 -24 142 6 67 4 82 -21 145 -26 68 -27 78 -33 320 l-7
250 -38 133 c-21 73 -36 139 -33 145 3 7 44 20 92 29 48 10 90 20 93 23 8 7
-46 181 -78 250 -15 33 -38 77 -53 98 -14 21 -38 74 -52 118 -35 103 -41 274
-13 325 9 17 22 59 27 92 9 53 15 67 54 104 61 59 76 122 58 246 -7 48 -13
122 -14 164 -2 86 -10 98 -80 119 -45 15 -77 3 -103 -36 -15 -22 -16 -32 -6
-59 7 -18 12 -49 12 -69 0 -28 -4 -36 -17 -35 -36 3 -99 -25 -123 -53 l-25
-30 -57 51 c-32 28 -72 56 -90 61 -42 12 -125 -11 -166 -46 -26 -22 -39 -25
-106 -25 -42 0 -96 7 -122 16 -53 18 -66 11 -99 -51 -11 -18 -28 -36 -38 -39
-32 -8 -149 5 -179 20 -15 8 -36 14 -47 14 -11 0 -41 11 -67 25 -26 14 -57 25
-69 25 -23 0 -102 75 -207 199 -35 41 -68 76 -73 77 -6 2 -37 -11 -70 -29z"/>
<path d="M5950 4350 c0 -6 134 -10 381 -10 251 0 378 3 374 10 -4 6 -142 10
-381 10 -243 0 -374 -4 -374 -10z"/>
<path d="M925 4249 c-10 -15 1 -23 20 -15 9 3 13 10 10 16 -8 13 -22 13 -30
-1z"/>
<path d="M10576 4209 c21 -126 49 -209 69 -209 8 0 27 -14 44 -31 27 -26 34
-29 47 -18 28 23 101 185 90 197 -3 2 -22 -22 -42 -54 -21 -32 -47 -66 -58
-75 -20 -16 -21 -15 -42 35 -34 83 -70 150 -93 170 l-21 19 6 -34z"/>
<path d="M10524 3928 c4 -27 17 -53 33 -68 23 -23 24 -23 14 -3 -6 12 -11 37
-11 55 0 33 -14 58 -33 58 -6 0 -7 -18 -3 -42z"/>
<path d="M10670 3680 c0 -5 5 -10 10 -10 6 0 10 5 10 10 0 6 -4 10 -10 10 -5
0 -10 -4 -10 -10z"/>
<path d="M10771 3547 c-28 -45 -60 -72 -103 -88 -34 -11 -39 -11 -59 7 -11 10
-30 36 -41 57 -11 22 -22 37 -25 34 -8 -9 44 -90 82 -125 l35 -34 26 24 c54
49 67 64 90 111 28 54 25 63 -5 14z"/>
<path d="M3572 3520 c-44 -10 -80 -45 -92 -89 -6 -20 -10 -168 -10 -334 0
-322 2 -339 55 -387 l27 -25 1016 -3 c971 -2 1019 -1 1051 16 69 37 71 49 71
402 0 347 -2 359 -63 404 -28 21 -34 21 -1025 23 -548 0 -1012 -2 -1030 -7z
m318 -134 c0 -25 -4 -48 -10 -51 -6 -4 -10 13 -10 44 0 28 5 51 10 51 6 0 10
-20 10 -44z m-161 -22 c22 -37 26 -54 13 -54 -9 0 -42 64 -42 80 0 18 8 11 29
-26z m319 19 c-25 -53 -43 -83 -50 -83 -12 0 -10 6 12 50 11 22 25 40 31 40 6
0 9 -3 7 -7z m384 -103 l36 -90 -24 0 c-14 0 -27 7 -30 15 -4 9 -19 15 -39 15
-20 0 -35 -6 -39 -15 -3 -8 -16 -15 -30 -15 l-24 0 36 90 c29 74 39 90 57 90
18 0 28 -16 57 -90z m896 68 c-2 -13 -10 -23 -18 -23 -8 0 -16 10 -18 23 -3
17 2 22 18 22 16 0 21 -5 18 -22z m-668 -28 c0 -11 5 -20 10 -20 6 0 10 -7 10
-15 0 -8 -4 -15 -10 -15 -16 0 -12 -40 6 -58 15 -15 15 -16 -2 -23 -32 -11
-54 8 -54 46 0 19 -4 35 -10 35 -5 0 -10 7 -10 15 0 8 5 15 10 15 6 0 10 9 10
20 0 13 7 20 20 20 13 0 20 -7 20 -20z m590 0 c0 -11 5 -20 10 -20 6 0 10 -7
10 -15 0 -8 -4 -15 -10 -15 -16 0 -12 -40 6 -58 15 -15 15 -16 -2 -23 -32 -11
-54 8 -54 46 0 19 -4 35 -10 35 -5 0 -10 7 -10 15 0 8 5 15 10 15 6 0 10 9 10
20 0 13 7 20 20 20 13 0 20 -7 20 -20z m-1283 -34 c71 -36 113 -104 113 -181
0 -58 -19 -103 -59 -140 -29 -28 -31 -35 -31 -95 0 -36 -4 -71 -8 -78 -6 -9
-35 -12 -108 -10 l-99 3 -3 74 c-3 65 -6 76 -28 93 -39 31 -68 96 -68 153 0
86 55 163 139 194 37 13 114 7 152 -13z m838 -1 c30 -29 31 -45 7 -76 -36 -44
-122 -18 -122 37 0 26 43 64 72 64 10 0 30 -11 43 -25z m134 16 c9 -6 22 -6
33 0 35 19 58 -6 58 -61 0 -43 -3 -50 -20 -50 -17 0 -20 7 -20 40 0 29 -4 40
-15 40 -11 0 -15 -11 -15 -40 0 -33 -3 -40 -19 -40 -16 0 -20 8 -23 38 -2 25
-8 37 -18 37 -10 0 -16 -12 -18 -37 -3 -30 -7 -38 -23 -38 -16 0 -19 7 -19 54
0 54 0 55 33 59 17 2 37 4 42 5 6 1 17 -2 24 -7z m219 -1 c20 0 22 -5 22 -55
0 -54 -1 -55 -28 -53 -15 1 -33 -2 -40 -6 -7 -4 -24 -1 -37 8 -51 34 -17 127
40 112 11 -3 30 -6 43 -6z m286 -2 c49 -21 46 -87 -3 -108 -24 -9 -35 -9 -58
2 -24 11 -28 19 -28 53 0 32 5 42 25 52 31 16 33 16 64 1z m154 -4 c17 -12 22
-25 22 -60 0 -37 -3 -44 -19 -44 -16 0 -20 8 -23 37 -2 27 -8 39 -20 41 -15 3
-18 -4 -18 -37 0 -34 -3 -41 -20 -41 -18 0 -20 7 -20 54 0 54 0 55 33 59 17 2
34 5 37 5 3 1 16 -5 28 -14z m-1086 -31 c2 -26 8 -38 18 -38 10 0 16 12 18 38
3 29 7 37 23 37 18 0 20 -6 17 -47 -2 -39 -8 -50 -29 -62 -22 -12 -29 -12 -55
0 -25 12 -29 20 -32 62 -3 41 -1 47 17 47 16 0 20 -8 23 -37z m818 -18 c0 -48
-2 -55 -20 -55 -18 0 -20 7 -20 55 0 48 2 55 20 55 18 0 20 -7 20 -55z m-1715
-6 c20 -12 33 -24 31 -27 -8 -7 -86 29 -86 40 0 13 16 9 55 -13z m565 8 c0
-11 -58 -47 -75 -47 -18 0 1 23 33 39 45 24 42 24 42 8z m-535 -157 c4 -6 -13
-10 -44 -10 -28 0 -51 5 -51 10 0 6 20 10 44 10 25 0 48 -4 51 -10z m565 0 c0
-5 -23 -10 -51 -10 -31 0 -48 4 -44 10 3 6 26 10 51 10 24 0 44 -4 44 -10z
m510 -95 l0 -95 -29 0 c-16 0 -36 -3 -45 -6 -18 -7 -66 37 -66 61 0 26 48 67
70 60 17 -5 20 -2 20 28 0 38 6 47 32 47 16 0 18 -10 18 -95z m200 65 c0 -15
-7 -20 -25 -20 -24 0 -25 -2 -25 -70 0 -63 -2 -70 -20 -70 -18 0 -20 7 -20 70
0 63 -2 70 -20 70 -13 0 -20 7 -20 20 0 18 7 20 65 20 58 0 65 -2 65 -20z
m376 9 c10 -17 -23 -46 -37 -32 -7 7 -9 19 -6 27 7 18 33 21 43 5z m-86 -39
c0 -11 7 -20 15 -20 8 0 15 -7 15 -15 0 -8 -7 -15 -15 -15 -8 0 -15 -7 -15
-16 0 -8 7 -22 15 -30 19 -20 19 -30 -1 -38 -27 -10 -54 12 -54 45 0 17 -7 37
-15 45 -8 9 -15 11 -15 5 0 -6 -8 -11 -17 -11 -14 0 -13 -3 5 -16 48 -33 5
-86 -53 -64 -32 12 -24 44 9 34 20 -6 20 -5 -1 11 -49 35 -16 79 51 68 32 -5
36 -3 36 16 0 14 6 21 20 21 13 0 20 -7 20 -20z m-809 -20 c29 0 29 -1 29 -55
0 -54 0 -55 -29 -55 -16 0 -36 -3 -45 -6 -18 -7 -66 37 -66 61 0 24 48 68 66
61 9 -3 29 -6 45 -6z m143 0 c23 -8 26 -15 26 -60 0 -43 -3 -50 -19 -50 -16 0
-20 8 -23 38 -2 25 -8 37 -18 37 -10 0 -16 -12 -18 -37 -3 -30 -7 -38 -23 -38
-16 0 -19 7 -19 54 0 54 0 55 33 59 17 2 33 5 34 5 1 1 13 -2 27 -8z m473 -5
c11 -8 23 -24 26 -35 4 -18 0 -20 -34 -20 -21 0 -39 -5 -39 -10 0 -6 14 -9 31
-8 43 4 48 -17 7 -31 -28 -10 -36 -9 -58 7 -36 27 -38 65 -4 91 32 25 43 26
71 6z m401 -1 c17 -12 22 -25 22 -60 0 -37 -3 -44 -19 -44 -16 0 -20 8 -23 37
-2 27 -8 39 -20 41 -15 3 -18 -4 -18 -37 0 -34 -3 -41 -20 -41 -18 0 -20 7
-20 54 0 54 0 55 33 59 17 2 34 5 37 5 3 1 16 -5 28 -14z m140 6 c21 0 22 -4
22 -75 0 -63 -3 -76 -19 -85 -29 -15 -77 -12 -91 5 -17 21 -6 29 35 27 19 -2
35 1 35 6 0 5 -14 9 -31 9 -56 0 -79 63 -38 104 14 14 28 19 42 15 12 -3 32
-6 45 -6z m-268 -55 c0 -48 -2 -55 -20 -55 -18 0 -20 7 -20 55 0 48 2 55 20
55 18 0 20 -7 20 -55z"/>
<path d="M4366 3285 c-9 -23 -8 -25 9 -25 17 0 19 9 6 28 -7 11 -10 10 -15 -3z"/>
<path d="M3831 3280 c-42 -10 -80 -38 -108 -80 -18 -25 -23 -47 -23 -92 0 -67
16 -104 60 -141 19 -16 30 -35 30 -51 0 -21 5 -26 24 -26 23 0 23 1 12 47 -10
44 -38 88 -49 76 -7 -6 -37 51 -37 70 0 8 7 18 17 21 15 6 15 8 -2 20 -15 11
-16 17 -6 49 7 21 19 37 27 37 8 0 14 4 14 10 0 16 72 42 81 29 5 -8 8 -8 13
0 5 8 17 7 42 -4 42 -17 56 -31 79 -75 16 -31 16 -34 0 -46 -15 -11 -15 -13 0
-21 13 -8 14 -13 3 -39 -16 -35 -49 -74 -63 -74 -6 0 -11 -8 -11 -17 0 -10 -4
-33 -8 -50 -7 -29 -5 -33 13 -33 16 0 21 6 21 24 0 16 11 32 30 46 67 47 89
153 50 230 -36 71 -127 110 -209 90z"/>
<path d="M3822 3222 c-8 -5 -10 -16 -6 -27 6 -15 4 -17 -14 -13 -23 7 -49 -23
-37 -42 10 -17 26 -11 55 20 35 37 77 40 108 7 12 -13 22 -29 22 -35 0 -9 6
-9 24 -1 21 10 23 15 14 34 -7 16 -16 21 -34 17 -20 -4 -23 -1 -18 13 4 10 1
21 -7 26 -21 13 -39 11 -39 -6 0 -8 -5 -15 -10 -15 -6 0 -13 7 -16 15 -7 17
-22 19 -42 7z"/>
<path d="M3837 3152 c-47 -52 11 -115 74 -82 13 7 19 21 19 45 0 52 -59 75
-93 37z"/>
<path d="M3771 3091 c-22 -14 3 -51 30 -44 18 5 20 3 15 -15 -9 -28 32 -43 47
-16 9 16 10 16 23 0 18 -25 49 -16 48 13 -1 18 3 22 22 18 16 -3 25 3 33 19 9
20 7 24 -12 30 -13 4 -23 2 -25 -6 -10 -28 -43 -50 -77 -50 -27 0 -39 7 -57
30 -24 33 -26 34 -47 21z"/>
<path d="M3870 2981 c0 -8 -6 -11 -15 -7 -18 6 -19 -9 -4 -53 14 -40 44 -42
53 -3 4 15 10 36 13 46 4 14 1 18 -10 13 -8 -3 -20 0 -26 6 -8 8 -11 8 -11 -2z"/>
<path d="M3790 2835 l0 -35 85 0 85 0 0 35 0 35 -85 0 -85 0 0 -35z"/>
<path d="M4743 3254 c-8 -21 13 -42 28 -27 13 13 5 43 -11 43 -6 0 -13 -7 -17
-16z"/>
<path d="M5094 3255 c-7 -18 3 -35 21 -35 15 0 28 27 19 41 -8 14 -34 11 -40
-6z"/>
<path d="M5394 3255 c-7 -18 3 -35 21 -35 15 0 28 27 19 41 -8 14 -34 11 -40
-6z"/>
<path d="M4633 2964 c-8 -21 13 -42 28 -27 13 13 5 43 -11 43 -6 0 -13 -7 -17
-16z"/>
<path d="M4343 2964 c-8 -21 13 -42 28 -27 13 13 5 43 -11 43 -6 0 -13 -7 -17
-16z"/>
<path d="M4975 2980 c-3 -5 1 -10 10 -10 9 0 13 5 10 10 -3 6 -8 10 -10 10 -2
0 -7 -4 -10 -10z"/>
<path d="M5503 2964 c-8 -21 13 -42 28 -27 13 13 5 43 -11 43 -6 0 -13 -7 -17
-16z"/>
<path d="M10513 3289 c13 -42 34 -76 67 -112 43 -46 51 -50 67 -39 10 6 28 17
41 22 47 20 111 71 153 121 l43 51 -42 -21 c-23 -12 -68 -49 -101 -82 l-60
-62 -43 20 c-49 24 -64 39 -101 105 -39 67 -47 66 -24 -3z"/>
<path d="M10460 3108 c-1 -23 98 -189 131 -221 39 -38 41 -38 58 -21 16 18 16
19 -18 37 -53 28 -69 45 -102 106 -30 56 -68 112 -69 99z"/>
<path d="M10823 3059 c-29 -19 -157 -178 -131 -163 56 31 180 165 166 179 -2
2 -18 -5 -35 -16z"/>
<path d="M10410 2823 c0 -5 19 -42 43 -83 33 -58 51 -79 82 -95 22 -11 43 -24
47 -30 5 -6 12 -5 20 3 6 6 18 12 26 12 32 0 122 54 170 102 28 28 50 54 47
56 -10 10 -80 -23 -135 -64 -33 -24 -67 -44 -75 -44 -8 0 -24 -5 -34 -12 -28
-17 -47 -4 -87 59 -48 74 -104 126 -104 96z"/>
<path d="M10337 2523 c50 -81 74 -103 131 -119 31 -9 60 -21 64 -27 7 -12 56
-18 153 -21 59 -1 155 26 155 44 0 16 -71 32 -118 27 -26 -3 -66 -11 -90 -18
-36 -11 -44 -11 -52 0 -4 8 -15 11 -23 8 -20 -7 -59 23 -86 67 -24 38 -74 66
-120 66 l-31 0 17 -27z"/>
<path d="M4502 2460 c-12 -5 -30 -24 -40 -41 -9 -17 -34 -54 -55 -82 -21 -28
-40 -62 -43 -74 -9 -33 14 -93 35 -93 10 0 26 -9 36 -20 23 -25 39 -25 74 1
32 24 70 22 82 -3 5 -10 13 -26 18 -35 4 -10 23 -22 42 -28 49 -14 59 -23 59
-51 0 -29 28 -44 44 -22 8 11 26 14 72 10 53 -4 65 -1 83 17 25 25 27 70 6
110 -9 18 -12 42 -8 65 4 28 0 48 -20 84 -13 26 -28 62 -32 80 -10 47 -50 64
-175 73 -58 5 -116 10 -130 13 -14 3 -35 1 -48 -4z"/>
<path d="M6350 2380 c0 -6 133 -10 380 -10 247 0 380 4 380 10 0 6 -133 10
-380 10 -247 0 -380 -4 -380 -10z"/>
<path d="M4845 1968 c-9 -28 -24 -187 -24 -253 0 -38 -5 -86 -12 -105 -6 -19
-14 -107 -18 -195 l-6 -160 -90 0 c-49 0 -99 -3 -111 -8 -19 -7 -22 -3 -27 45
-4 29 -7 68 -7 86 0 17 -2 32 -5 32 -2 0 -30 -12 -61 -27 l-56 -28 7 -52 6
-53 -40 0 -40 0 -6 -52 c-4 -29 -5 -69 -3 -88 2 -29 8 -36 36 -44 17 -5 32
-15 32 -23 0 -18 -25 -11 -100 26 -30 16 -85 39 -122 52 -38 13 -62 27 -56 31
7 4 0 10 -17 14 -25 6 -55 -6 -190 -76 -88 -45 -164 -86 -169 -91 -18 -16 148
-201 222 -249 22 -15 23 -16 8 -52 -24 -56 -22 -189 3 -219 18 -23 19 -23 122
-11 57 7 148 13 203 14 l98 3 29 -34 c33 -40 74 -49 220 -50 64 -1 98 -6 133
-22 28 -12 62 -19 84 -17 l37 3 0 55 0 55 100 11 c136 15 177 39 223 129 l20
40 7 -40 c9 -49 35 -115 44 -115 4 0 16 6 26 14 19 14 19 15 0 51 -19 34 -19
37 -2 46 9 6 17 17 17 25 0 17 39 34 79 34 30 0 51 16 51 40 0 9 -48 86 -107
171 -76 110 -109 167 -116 199 -5 25 -10 167 -12 317 -1 150 -6 288 -9 308
-11 54 -105 159 -163 181 -27 10 -59 24 -73 31 -14 7 -32 13 -40 13 -8 0 -33
12 -55 25 -45 28 -64 31 -70 13z m-162 -959 c45 -6 98 -9 119 -8 20 2 40 1 43
-3 12 -11 -100 -19 -196 -12 -89 6 -99 9 -99 27 0 16 5 18 26 13 14 -4 62 -11
107 -17z"/>
<path d="M4451 1867 l-32 -8 19 -32 c11 -18 43 -78 73 -134 29 -57 57 -103 61
-103 4 0 8 25 8 55 0 30 7 75 16 100 14 43 14 49 -3 83 -16 33 -23 38 -64 42
-26 3 -61 2 -78 -3z"/>
<path d="M4118 1557 c-136 -72 -245 -133 -243 -135 4 -4 505 257 505 264 0 10
-29 -4 -262 -129z"/>
<path d="M4335 1303 c-47 -24 -49 -27 -28 -36 29 -13 44 -5 66 32 10 17 17 31
15 31 -2 -1 -25 -13 -53 -27z"/>
<path d="M10020 1111 c0 -110 -1 -109 89 -126 l34 -7 -7 53 c-9 66 -30 116
-63 152 -46 47 -53 38 -53 -72z"/>
</g>
</svg>
